<svg width="14" height="14" viewBox="0 0 14 14" fill="none" xmlns="http://www.w3.org/2000/svg">
<path d="M13.3369 2.59821C12.7209 2.85998 12.0741 3.01216 11.4221 3.01216C9.62032 3.01216 8.08031 2.05643 7.0177 0.583252C6.99204 0.583252 6.96637 0.583252 6.93557 0.583252C6.88937 0.583252 6.8483 0.583252 6.8021 0.589339C5.67276 2.2147 3.94282 3.2861 2.16154 3.2861C1.58661 3.2861 1.03734 3.18261 0.518866 3.00608C0.180063 3.45655 -0.00987098 3.94355 0.000395744 4.4549C0.0363293 6.5003 3.29088 13.507 7.15631 13.4157C11.0217 13.3244 14.0607 7.71171 13.9991 4.12009C13.9888 3.57221 13.7475 3.05478 13.3369 2.59821Z" fill="white"/>
</svg>
