<svg width="16" height="16" viewBox="0 0 16 16" fill="none" xmlns="http://www.w3.org/2000/svg">
<path d="M10.9217 2.31768L9.40683 2.31519C7.70493 2.31519 6.60508 3.47433 6.60508 5.2684V6.63003H5.08195C4.95033 6.63003 4.84375 6.73964 4.84375 6.87484V8.84769C4.84375 8.98289 4.95045 9.09238 5.08195 9.09238H6.60508V14.0705C6.60508 14.2057 6.71166 14.3152 6.84328 14.3152H8.83054C8.96216 14.3152 9.06874 14.2056 9.06874 14.0705V9.09238H10.8496C10.9813 9.09238 11.0878 8.98289 11.0878 8.84769L11.0886 6.87484C11.0886 6.80993 11.0634 6.74776 11.0188 6.70181C10.9742 6.65587 10.9134 6.63003 10.8502 6.63003H9.06874V5.47576C9.06874 4.92097 9.19744 4.63933 9.90097 4.63933L10.9215 4.63896C11.053 4.63896 11.1595 4.52935 11.1595 4.39427V2.56237C11.1595 2.42742 11.0531 2.31793 10.9217 2.31768Z" fill="#4A5CFF"/>
</svg>
