<svg width="16" height="16" viewBox="0 0 16 16" fill="none" xmlns="http://www.w3.org/2000/svg">
<path fill-rule="evenodd" clip-rule="evenodd" d="M2.63281 7.58086C2.63281 5.51851 2.63281 4.48733 3.15802 3.76445C3.32763 3.53099 3.53294 3.32568 3.7664 3.15606C4.48928 2.63086 5.52046 2.63086 7.58281 2.63086H8.41966C10.482 2.63086 11.5132 2.63086 12.2361 3.15606C12.4695 3.32568 12.6748 3.53099 12.8444 3.76445C13.3697 4.48733 13.3697 5.51851 13.3697 7.58086V8.4177C13.3697 10.4801 13.3697 11.5112 12.8444 12.2341C12.6748 12.4676 12.4695 12.6729 12.2361 12.8425C11.5132 13.3677 10.482 13.3677 8.41965 13.3677H7.58281C5.52046 13.3677 4.48928 13.3677 3.7664 12.8425C3.53294 12.6729 3.32763 12.4676 3.15802 12.2341C2.63281 11.5112 2.63281 10.4801 2.63281 8.4177V7.58086ZM8.00128 5.1571C6.43173 5.1571 5.15918 6.42966 5.15918 7.99921C5.15918 9.56876 6.43173 10.8413 8.00128 10.8413C9.57084 10.8413 10.8434 9.56876 10.8434 7.99921C10.8434 6.42966 9.57084 5.1571 8.00128 5.1571ZM8.00128 9.77553C7.02218 9.77553 6.22497 8.97831 6.22497 7.99921C6.22497 7.01939 7.02218 6.22289 8.00128 6.22289C8.98039 6.22289 9.7776 7.01939 9.7776 7.99921C9.7776 8.97831 8.98039 9.77553 8.00128 9.77553ZM11.4352 4.94402C11.4352 5.15317 11.2656 5.32273 11.0564 5.32273C10.8473 5.32273 10.6777 5.15317 10.6777 4.94402C10.6777 4.73486 10.8473 4.56531 11.0564 4.56531C11.2656 4.56531 11.4352 4.73486 11.4352 4.94402Z" fill="#FF4F79"/>
</svg>
