<svg width="24" height="2" viewBox="0 0 24 2" fill="none" xmlns="http://www.w3.org/2000/svg">
<path d="M13 5.24537e-07C13.5523 5.48679e-07 14 0.447716 14 1C14 1.55229 13.5523 2 13 2L1 2C0.447716 2 -2.41411e-08 1.55229 0 1C2.41411e-08 0.447716 0.447716 -2.41402e-08 1 0L13 5.24537e-07Z" fill="black"/>
<path d="M23 5.24537e-07C23.5523 5.48679e-07 24 0.447716 24 1C24 1.55229 23.5523 2 23 2L18 2C17.4477 2 17 1.55229 17 1C17 0.447716 17.4477 2.81839e-07 18 3.0598e-07L23 5.24537e-07Z" fill="black"/>
</svg>
