<svg width="24" height="22" viewBox="0 0 24 22" fill="none" xmlns="http://www.w3.org/2000/svg">
<path d="M22.8632 3.45422C21.8072 3.90296 20.6984 4.16385 19.5808 4.16385C16.492 4.16385 13.852 2.52544 12.0304 0C11.9864 0 11.9424 0 11.8896 0C11.8103 0 11.7399 0 11.6607 0.0104357C9.72474 2.79677 6.75912 4.63346 3.7055 4.63346C2.71989 4.63346 1.77829 4.45605 0.889484 4.15341C0.30868 4.92566 -0.0169217 5.76051 0.000678418 6.63711C0.0622788 10.1435 5.64151 22.155 12.268 21.9985C18.8944 21.8419 24.104 12.2202 23.9984 6.06315C23.9808 5.12394 23.5672 4.2369 22.8632 3.45422Z" fill="#FFCE00"/>
</svg>
