<svg width="234" height="163" viewBox="0 0 234 163" fill="none" xmlns="http://www.w3.org/2000/svg">
<path d="M233.333 6C233.333 8.94552 230.946 11.3333 228 11.3333C225.054 11.3333 222.667 8.94552 222.667 6C222.667 3.05448 225.054 0.666667 228 0.666667C230.946 0.666667 233.333 3.05448 233.333 6ZM229 6C229 8.12802 228.961 10.1995 228.885 12.216L226.887 12.1405C226.962 10.1502 227 8.10388 227 6H229ZM227.916 24.2036C227.373 28.4362 226.63 32.3817 225.7 36.0603L223.761 35.5701C224.67 31.9756 225.398 28.1091 225.933 23.9489L227.916 24.2036ZM221.861 47.5081C220.182 51.4043 218.229 54.9135 216.027 58.0751L214.386 56.9322C216.507 53.886 218.396 50.4953 220.024 46.7166L221.861 47.5081ZM207.971 67.2272C204.941 69.9619 201.642 72.3097 198.114 74.3307L197.12 72.5954C200.534 70.6395 203.715 68.374 206.631 65.7425L207.971 67.2272ZM187.124 79.3866C183.412 80.7425 179.53 81.861 175.511 82.7925L175.06 80.8441C179.012 79.928 182.814 78.8316 186.438 77.508L187.124 79.3866ZM163.676 84.9898C159.784 85.5586 155.798 86.0115 151.743 86.3863L151.559 84.3948C155.587 84.0224 159.537 83.5734 163.387 83.0108L163.676 84.9898ZM139.766 87.2916C135.812 87.5373 131.813 87.746 127.792 87.9493L127.691 85.9518C131.711 85.7486 135.7 85.5404 139.642 85.2954L139.766 87.2916ZM115.847 88.566C111.869 88.7861 107.887 89.0314 103.92 89.3322L103.768 87.3379C107.754 87.0358 111.751 86.7896 115.737 86.5691L115.847 88.566ZM92.036 90.4353C88.0631 90.8834 84.1253 91.4192 80.2413 92.0738L79.9089 90.1017C83.8347 89.44 87.8091 88.8994 91.8119 88.4479L92.036 90.4353ZM68.593 94.4688C64.7148 95.4273 60.9161 96.5457 57.2172 97.8581L56.5484 95.9733C60.3163 94.6364 64.1787 93.4996 68.1131 92.5272L68.593 94.4688ZM46.3214 102.47C42.8023 104.231 39.4066 106.226 36.1555 108.49L35.0126 106.849C38.3478 104.526 41.827 102.483 45.4265 100.682L46.3214 102.47ZM27.0415 115.947C24.2788 118.594 21.659 121.509 19.1999 124.724L17.6114 123.508C20.1328 120.213 22.8211 117.22 25.6578 114.502L27.0415 115.947ZM12.7203 134.58C10.8651 137.873 9.14244 141.413 7.56462 145.219L5.71709 144.453C7.3242 140.576 9.0816 136.964 10.9778 133.599L12.7203 134.58ZM3.59985 156.373C3.02554 158.275 2.48161 160.232 1.96913 162.247L0.0308685 161.753C0.550415 159.711 1.10219 157.726 1.68524 155.795L3.59985 156.373Z" fill="#9D6FF3"/>
</svg>
