<svg width="24" height="24" viewBox="0 0 24 24" fill="none" xmlns="http://www.w3.org/2000/svg">
<path d="M15.9887 24H15.8401C10.766 24 8.3203 21.9552 7.89746 17.3749C7.85174 16.8958 8.19459 16.4635 8.67458 16.4168C9.14314 16.37 9.56599 16.7322 9.6117 17.2113C9.94313 20.8802 11.6345 22.2473 15.8516 22.2473H16.0001C20.6515 22.2473 22.2971 20.5648 22.2971 15.8092V8.19084C22.2971 3.43524 20.6515 1.75268 16.0001 1.75268H15.8516C11.6117 1.75268 9.92027 3.14313 9.6117 6.88217C9.55456 7.36124 9.166 7.72346 8.67458 7.67672C8.19459 7.64167 7.85174 7.20934 7.88603 6.73028C8.27459 2.07984 10.7317 0 15.8401 0H15.9887C21.6 0 24 2.45375 24 8.19084V15.8092C24 21.5463 21.6 24 15.9887 24Z" fill="black"/>
<path d="M15.5768 12.8762H0.857124C0.388563 12.8762 0 12.4789 0 11.9999C0 11.5208 0.388563 11.1235 0.857124 11.1235H15.5768C16.0454 11.1235 16.4339 11.5208 16.4339 11.9999C16.4339 12.4789 16.0568 12.8762 15.5768 12.8762Z" fill="black"/>
<path d="M13.0281 16.7908C12.811 16.7908 12.5938 16.709 12.4224 16.5337C12.091 16.1949 12.091 15.634 12.4224 15.2952L15.6452 12.0001L12.4224 8.7051C12.091 8.36625 12.091 7.80539 12.4224 7.46654C12.7538 7.12769 13.3024 7.12769 13.6338 7.46654L17.4623 11.3809C17.7937 11.7197 17.7937 12.2806 17.4623 12.6194L13.6338 16.5337C13.4624 16.709 13.2452 16.7908 13.0281 16.7908Z" fill="black"/>
</svg>
