<svg width="9" height="18" viewBox="0 0 9 18" fill="none" xmlns="http://www.w3.org/2000/svg">
<path d="M0.910006 17.67C0.720006 17.67 0.530006 17.6 0.380006 17.45C0.0900061 17.16 0.0900061 16.68 0.380006 16.39L6.90001 9.87002C7.38001 9.39002 7.38001 8.61002 6.90001 8.13002L0.380006 1.61002C0.0900061 1.32002 0.0900061 0.84002 0.380006 0.55002C0.670006 0.26002 1.15001 0.26002 1.44001 0.55002L7.96001 7.07002C8.47001 7.58002 8.76001 8.27002 8.76001 9.00002C8.76001 9.73002 8.48001 10.42 7.96001 10.93L1.44001 17.45C1.29001 17.59 1.10001 17.67 0.910006 17.67Z" fill="black"/>
</svg>
