<svg width="15" height="16" viewBox="0 0 15 16" fill="none" xmlns="http://www.w3.org/2000/svg">
<path fill-rule="evenodd" clip-rule="evenodd" d="M6.1875 1.5C3.32252 1.5 1 3.82252 1 6.6875C1 9.55248 3.32252 11.875 6.1875 11.875C7.62013 11.875 8.91632 11.2949 9.85562 10.3556C10.7949 9.41632 11.375 8.12013 11.375 6.6875C11.375 3.82252 9.05248 1.5 6.1875 1.5ZM0 6.6875C0 3.27024 2.77024 0.5 6.1875 0.5C9.60476 0.5 12.375 3.27024 12.375 6.6875C12.375 8.21595 11.8203 9.61559 10.902 10.6949L14.8536 14.6464C15.0488 14.8417 15.0488 15.1583 14.8536 15.3536C14.6583 15.5488 14.3417 15.5488 14.1464 15.3536L10.1949 11.402C9.11559 12.3203 7.71595 12.875 6.1875 12.875C2.77024 12.875 0 10.1048 0 6.6875Z" fill="#666666"/>
</svg>
