<svg width="18" height="18" viewBox="0 0 18 18" fill="none" xmlns="http://www.w3.org/2000/svg">
<g clip-path="url(#clip0_491_30024)">
<path d="M6.75 7.5C6.75 7.08579 7.08579 6.75 7.5 6.75H9C9.41421 6.75 9.75 7.08579 9.75 7.5V11.25H11.25C11.6642 11.25 12 11.5858 12 12C12 12.4142 11.6642 12.75 11.25 12.75H6.75C6.33579 12.75 6 12.4142 6 12C6 11.5858 6.33579 11.25 6.75 11.25H8.25V8.25H7.5C7.08579 8.25 6.75 7.91421 6.75 7.5Z" fill="black"/>
<path d="M8.625 6C9.24632 6 9.75 5.49632 9.75 4.875C9.75 4.25368 9.24632 3.75 8.625 3.75C8.00368 3.75 7.5 4.25368 7.5 4.875C7.5 5.49632 8.00368 6 8.625 6Z" fill="black"/>
<path fill-rule="evenodd" clip-rule="evenodd" d="M0 9C0 4.02944 4.02944 0 9 0C13.9706 0 18 4.02944 18 9C18 13.9706 13.9706 18 9 18C4.02944 18 0 13.9706 0 9ZM9 1.5C4.85786 1.5 1.5 4.85786 1.5 9C1.5 13.1421 4.85786 16.5 9 16.5C13.1421 16.5 16.5 13.1421 16.5 9C16.5 4.85786 13.1421 1.5 9 1.5Z" fill="black"/>
</g>
<defs>
<clipPath id="clip0_491_30024">
<rect width="18" height="18" fill="white"/>
</clipPath>
</defs>
</svg>
