<svg width="12" height="12" viewBox="0 0 12 12" fill="none" xmlns="http://www.w3.org/2000/svg">
<path fill-rule="evenodd" clip-rule="evenodd" d="M11.6848 6.00013C11.6848 9.13943 9.13992 11.6843 6.00062 11.6843C2.86131 11.6843 0.316406 9.13943 0.316406 6.00013C0.316406 2.86083 2.86131 0.315918 6.00062 0.315918C9.13992 0.315918 11.6848 2.86083 11.6848 6.00013ZM6.50989 4.37372L2.68208 5.95084C2.00852 6.21369 2.4028 6.46012 2.4028 6.46012C2.4028 6.46012 2.97779 6.65726 3.47065 6.80512C3.9635 6.95297 4.22635 6.78869 4.22635 6.78869L6.54275 5.22799C7.36417 4.66943 7.16703 5.12942 6.96989 5.32656C6.54275 5.7537 5.83633 6.42726 5.24491 6.9694C4.98205 7.1994 5.11348 7.39654 5.22848 7.49511C5.56279 7.77799 6.34998 8.29234 6.70784 8.52616C6.8072 8.59108 6.87346 8.63438 6.88774 8.64509C6.96989 8.7108 7.42988 9.00652 7.70916 8.9408C7.98844 8.87509 8.0213 8.49724 8.0213 8.49724L8.43201 5.91798C8.46851 5.67618 8.505 5.43945 8.53904 5.21869C8.62756 4.64452 8.69942 4.17842 8.71129 4.0123C8.76058 3.45373 8.16915 3.68373 8.16915 3.68373C8.16915 3.68373 6.88774 4.20944 6.50989 4.37372Z" fill="#6CA0DC"/>
</svg>
