<svg width="42" height="35" viewBox="0 0 42 35" fill="none" xmlns="http://www.w3.org/2000/svg">
<path d="M0 17.537C0 14.2812 0.68231 11.346 2.04693 8.7315C3.46209 6.11698 5.50903 4.0451 8.18773 2.51586C10.8664 0.93728 14.0758 0.098661 17.8159 0V7.69556C14.6318 7.69556 12.2563 8.55884 10.6895 10.2854C9.17328 12.012 8.41516 14.4292 8.41516 17.537V19.3129H17.0578V35H0V17.537ZM42 7.69556C38.8159 7.69556 36.4404 8.55884 34.8736 10.2854C33.3574 12.012 32.5993 14.4292 32.5993 17.537V19.3129H41.2419V35H24.1841V17.537C24.1841 14.2812 24.8664 11.346 26.231 8.7315C27.6462 6.11698 29.6931 4.0451 32.3718 2.51586C35.0505 0.93728 38.2599 0.098661 42 0V7.69556Z" fill="#E4D6FF"/>
</svg>
